<?xml version="1.0" encoding="utf-8"?>
<!-- Generator: Adobe Illustrator 24.3.0, SVG Export Plug-In . SVG Version: 6.00 Build 0)  -->
<svg version="1.1" id="Capa_1" xmlns="http://www.w3.org/2000/svg" xmlns:xlink="http://www.w3.org/1999/xlink" x="0px" y="0px"
	 viewBox="0 0 32 50" style="enable-background:new 0 0 32 50;" xml:space="preserve">
<style type="text/css">
	.st0{fill:#60D937;}
</style>
<g>
	<g>
		<path class="st0" d="M16,0.2C7.2,0.2,0.1,7.3,0.1,16.1c0,3.8,1.3,7.3,3.6,10c0.7,0.9,1.9,2.3,2.5,3.2c3.6,5.5,8.2,13.3,9.6,19.8
			c0.2,1.1,0.5,1.1,0.8,0c1-3.5,3.4-11.1,8.6-19.1c0.6-1,1.9-2.3,2.6-3.1c1.1-1.2,2-2.6,2.8-4.1c1-2.1,1.5-4.3,1.5-6.8
			C31.9,7.3,24.8,0.2,16,0.2z M16,24.6c-4.9,0-8.9-4-8.9-8.9s4-8.9,8.9-8.9s8.9,4,8.9,8.9S20.9,24.6,16,24.6z"/>
		<circle class="st0" cx="16" cy="15.5" r="3.7"/>
	</g>
</g>
</svg>
